<svg xmlns="http://www.w3.org/2000/svg" xmlns:xlink="http://www.w3.org/1999/xlink" width="155" height="78" viewBox="0 0 155 78">
  <defs>
    <filter id="Ellipse_1" x="0" y="0" width="78" height="78" filterUnits="userSpaceOnUse">
      <feOffset dy="3" input="SourceAlpha"/>
      <feGaussianBlur stdDeviation="3" result="blur"/>
      <feFlood flood-opacity="0.161"/>
      <feComposite operator="in" in2="blur"/>
      <feComposite in="SourceGraphic"/>
    </filter>
    <filter id="Ellipse_1-2" x="0" y="0" width="78" height="78" filterUnits="userSpaceOnUse">
      <feOffset dy="3" input="SourceAlpha"/>
      <feGaussianBlur stdDeviation="3" result="blur-2"/>
      <feFlood flood-opacity="0.161" result="color"/>
      <feComposite operator="out" in="SourceGraphic" in2="blur-2"/>
      <feComposite operator="in" in="color"/>
      <feComposite operator="in" in2="SourceGraphic"/>
    </filter>
  </defs>
  <g id="Group_25" data-name="Group 25" transform="translate(-91 -25)">
    <g data-type="innerShadowGroup">
      <g transform="matrix(1, 0, 0, 1, 91, 25)" filter="url(#Ellipse_1)">
        <circle id="Ellipse_1-3" data-name="Ellipse 1" cx="30" cy="30" r="30" transform="translate(9 6)" fill="#fff"/>
      </g>
      <g transform="matrix(1, 0, 0, 1, 91, 25)" filter="url(#Ellipse_1-2)">
        <circle id="Ellipse_1-4" data-name="Ellipse 1" cx="30" cy="30" r="30" transform="translate(9 6)" fill="#fff"/>
      </g>
    </g>
    <g id="Icon_feather-cloud-lightning" data-name="Icon feather-cloud-lightning" transform="translate(108.899 39.899)">
      <path id="Path_1" data-name="Path 1" d="M35.233,31.295a9.37,9.37,0,0,0-1.874-18.552H31A14.991,14.991,0,1,0,9.223,29.608" transform="translate(-1.49 -1.501)" fill="none" stroke="#000" stroke-linecap="round" stroke-linejoin="round" stroke-width="3"/>
      <path id="Path_2" data-name="Path 2" d="M21,16.5,13.5,27.743H24.743l-7.5,11.243" transform="translate(1.504 2.238)" fill="none" stroke="#000" stroke-linecap="round" stroke-linejoin="round" stroke-width="3"/>
    </g>
    <text id="Webby" transform="translate(169 69)" fill="#fff" font-size="25" font-family="SegoeUI, Segoe UI"><tspan x="0" y="0">Webby</tspan></text>
  </g>
</svg>
